<?xml version="1.0" encoding="utf-8"?>
<!-- Generator: Adobe Illustrator 24.3.0, SVG Export Plug-In . SVG Version: 6.00 Build 0)  -->
<svg version="1.1" id="Capa_1" xmlns="http://www.w3.org/2000/svg" xmlns:xlink="http://www.w3.org/1999/xlink" x="0px" y="0px"
	 viewBox="0 0 512 512" style="enable-background:new 0 0 512 512;" xml:space="preserve">
<style type="text/css">
	.st0{fill:none;stroke:#001D85;stroke-width:32;stroke-linecap:round;stroke-miterlimit:10;}
	.st1{fill:#001D85;}
</style>
<path class="st0" d="M87.5,380c1.2-4.4-1.4-10.5-3.9-14.9c-0.8-1.3-1.6-2.6-2.5-3.8c-21.5-32.6-33-70.9-33-110
	C47.6,139.1,140.7,48,255.8,48c100.4,0,184.2,69.5,203.8,161.9c2.9,13.7,4.4,27.6,4.4,41.6c0,112.4-89.5,204.9-204.6,204.9
	c-18.3,0-43-4.6-56.5-8.4s-26.9-8.8-30.4-10.1c-3.6-1.4-7.3-2.1-11.1-2.1c-4.1,0-8.3,0.8-12.1,2.4l-67.8,24.5
	c-1.5,0.6-3.1,1.1-4.7,1.2c-5.3,0-9.6-4.3-9.6-9.6c0,0,0-0.1,0-0.1c0.1-1.1,0.3-2.2,0.6-3.3L87.5,380z"/>
<circle class="st1" cx="160" cy="256" r="32"/>
<circle class="st1" cx="256" cy="256" r="32"/>
<circle class="st1" cx="352" cy="256" r="32"/>
</svg>
